<svg preserveAspectRatio="none" width="100%" height="100%" overflow="visible" style="display: block;" viewBox="0 0 223.985 224.487" fill="none" xmlns="http://www.w3.org/2000/svg">
<g id="Group">
<g id="Group_2">
<path id="Vector (Stroke)" opacity="0.654" d="M110.38 103.006C111.225 102.946 111.734 102.93 112.619 103.031H112.619C113.483 103.13 114 103.234 114.837 103.539C115.661 103.84 116.139 104.074 116.87 104.564L116.872 104.565C117.612 105.064 117.997 105.417 118.587 106.03C119.196 106.662 119.478 107.09 119.933 107.74C120.409 108.42 120.626 108.834 121.005 109.473L121.276 109.929C121.357 110.068 121.43 110.195 121.502 110.32C121.646 110.571 121.785 110.813 121.974 111.127L121.976 111.13C122.36 111.775 122.559 112.063 122.974 112.735L123.246 113.163C123.462 113.498 123.658 113.796 123.892 114.196L124.037 114.449L124.04 114.454C124.416 115.135 124.683 115.567 125.001 116.382C125.307 117.164 125.486 117.666 125.628 118.556C125.766 119.423 125.799 119.96 125.713 120.855L125.713 120.855C125.627 121.739 125.497 122.255 125.215 123.085C125.215 123.087 125.214 123.089 125.213 123.092C124.917 123.934 124.668 124.389 124.244 125.118C123.805 125.88 123.497 126.274 122.992 126.919L122.989 126.923C122.462 127.585 122.147 127.93 121.566 128.519L121.563 128.522L121.563 128.521C120.986 129.098 120.656 129.414 120.013 129.936C119.379 130.45 119.004 130.733 118.292 131.161C117.598 131.583 117.175 131.803 116.421 132.115L116.419 132.116C115.656 132.429 115.211 132.561 114.444 132.762C114.441 132.763 114.439 132.764 114.437 132.764C113.644 132.962 113.201 133.024 112.434 133.134C111.644 133.247 111.209 133.277 110.433 133.328L110.432 133.328C109.655 133.387 109.226 133.409 108.428 133.416L108.429 133.417C107.644 133.431 107.184 133.447 106.339 133.378V133.378C105.534 133.319 105.035 133.28 104.187 133.088C104.185 133.087 104.183 133.087 104.181 133.086C103.356 132.891 102.85 132.748 102.051 132.372L102.048 132.371C101.256 131.994 100.803 131.719 100.116 131.158L100.114 131.155C99.4337 130.592 99.0799 130.197 98.5549 129.513C98.0146 128.808 97.781 128.348 97.4016 127.618C97.4009 127.617 97.3999 127.615 97.3992 127.613C97.0087 126.848 96.8508 126.399 96.569 125.655C96.2776 124.885 96.1492 124.469 95.9156 123.717C95.6801 122.959 95.5605 122.548 95.361 121.779C95.3605 121.777 95.36 121.775 95.3596 121.773C95.1708 121.018 95.0547 120.577 94.9258 119.766L94.9255 119.765C94.8005 118.971 94.7294 118.498 94.714 117.651C94.7139 117.649 94.7136 117.647 94.7136 117.645C94.7061 116.823 94.7297 116.333 94.8682 115.494L94.869 115.488C95.0141 114.655 95.1417 114.176 95.4499 113.383C95.7503 112.59 95.9812 112.154 96.4105 111.446L96.413 111.441C96.8568 110.722 97.1473 110.346 97.6789 109.717C98.2135 109.076 98.5503 108.755 99.1398 108.21H99.1401C99.7356 107.659 100.089 107.375 100.73 106.898L100.732 106.896C101.377 106.422 101.744 106.169 102.433 105.757C103.122 105.338 103.519 105.124 104.243 104.774L104.25 104.77C104.972 104.431 105.386 104.247 106.165 103.97C106.939 103.684 107.388 103.545 108.212 103.356C109.018 103.171 109.508 103.068 110.38 103.006ZM112.47 104.332C111.695 104.244 111.272 104.257 110.472 104.313C109.699 104.368 109.286 104.454 108.505 104.633C107.741 104.808 107.346 104.931 106.619 105.199C106.617 105.2 106.614 105.201 106.612 105.202C105.882 105.461 105.51 105.627 104.807 105.957C104.123 106.288 103.763 106.482 103.114 106.877C103.113 106.878 103.111 106.879 103.11 106.88C102.462 107.267 102.13 107.495 101.509 107.952C100.9 108.406 100.583 108.66 100.029 109.172C99.455 109.703 99.1659 109.98 98.6829 110.559L98.6801 110.563L98.1795 110.14L98.6797 110.563C98.1776 111.157 97.9293 111.48 97.5286 112.129C97.1305 112.786 96.9394 113.15 96.6736 113.852C96.6729 113.854 96.6721 113.856 96.6714 113.857C96.3979 114.562 96.2919 114.956 96.1609 115.707L96.1613 115.707C96.0377 116.455 96.0174 116.868 96.0244 117.633H96.024C96.0379 118.384 96.098 118.785 96.2203 119.561H96.2199C96.3382 120.306 96.4407 120.695 96.6295 121.45L96.7628 121.954C96.8872 122.413 96.9942 122.771 97.167 123.328C97.3994 124.076 97.5183 124.46 97.7948 125.191C98.081 125.946 98.2145 126.327 98.5667 127.018C98.9428 127.741 99.1318 128.111 99.5952 128.715C100.074 129.34 100.361 129.658 100.946 130.143C101.541 130.63 101.903 130.85 102.611 131.187C103.294 131.508 103.705 131.627 104.477 131.81C105.04 131.938 105.417 131.989 105.905 132.03L106.44 132.072L106.445 132.072C107.217 132.135 107.616 132.121 108.404 132.106H108.411C109.18 132.099 109.58 132.078 110.34 132.021C110.342 132.021 110.344 132.021 110.346 132.02C111.114 131.97 111.509 131.942 112.248 131.836C113.01 131.727 113.396 131.673 114.119 131.492C114.755 131.326 115.13 131.216 115.675 131.002L115.922 130.903C116.608 130.619 116.971 130.431 117.614 130.039L117.617 130.038C118.26 129.651 118.583 129.408 119.187 128.918C119.782 128.435 120.078 128.154 120.636 127.595C121.189 127.035 121.471 126.725 121.963 126.107C122.46 125.473 122.719 125.139 123.109 124.462L123.111 124.46C123.517 123.762 123.719 123.387 123.976 122.657C124.232 121.904 124.334 121.488 124.408 120.728C124.482 119.963 124.457 119.539 124.333 118.761C124.213 118.006 124.072 117.604 123.781 116.858C123.502 116.145 123.289 115.805 122.895 115.092L122.758 114.852C122.452 114.329 122.239 114.034 121.861 113.428L121.86 113.426C121.475 112.803 121.237 112.45 120.85 111.8V111.8C120.654 111.474 120.509 111.222 120.366 110.973C120.223 110.724 120.08 110.476 119.884 110.151C119.883 110.15 119.882 110.148 119.881 110.147C119.475 109.463 119.299 109.12 118.859 108.491C118.397 107.83 118.169 107.486 117.643 106.939C117.097 106.372 116.782 106.085 116.139 105.652V105.652C115.503 105.226 115.121 105.038 114.388 104.77C113.666 104.507 113.252 104.422 112.47 104.332V104.332Z" fill="#36504A"/>
<path id="Vector (Stroke)_2" opacity="0.654" d="M110.282 92.922C111.676 92.79 112.505 92.7368 113.931 92.8936C115.343 93.0487 116.167 93.2067 117.504 93.707C118.679 94.1378 119.394 94.499 120.337 95.1354L120.757 95.4263L120.758 95.427C121.779 96.1539 122.352 96.7081 123.1 97.5345L123.433 97.9063L123.435 97.9085C124.366 98.9739 124.781 99.6754 125.498 100.799L125.499 100.8C126.225 101.944 126.531 102.637 127.14 103.722H127.14C127.783 104.853 128.054 105.412 128.692 106.463L128.921 106.835C129.431 107.652 129.787 108.156 130.409 109.086C131.09 110.103 131.582 110.7 132.286 111.833H132.287C132.993 112.965 133.462 113.633 134.029 114.936C134.594 116.214 134.913 117.008 135.175 118.425C135.435 119.831 135.489 120.679 135.362 122.113C135.235 123.549 135.014 124.367 134.534 125.713L134.533 125.715C134.041 127.066 133.626 127.781 132.901 128.988L132.901 128.989C132.166 130.206 131.664 130.82 130.789 131.885C129.912 132.96 129.393 133.509 128.425 134.463C127.458 135.422 126.916 135.927 125.862 136.761L125.861 136.761C124.806 137.589 124.209 138.037 123.052 138.712C121.901 139.391 121.228 139.72 119.994 140.2L119.994 140.2C118.756 140.689 118.046 140.876 116.779 141.176C115.499 141.479 114.79 141.561 113.526 141.736L113.524 141.736C112.24 141.905 111.552 141.949 110.282 142.058H110.282C109.002 142.167 108.318 142.233 106.991 142.292C105.69 142.35 104.942 142.417 103.568 142.365H103.566C102.208 142.307 101.402 142.292 100.009 142.016L100.007 142.016C98.6317 141.736 97.8232 141.533 96.5218 140.942L96.5203 140.941C95.2255 140.346 94.506 139.899 93.4099 138.982L93.4089 138.982C92.3164 138.061 91.7799 137.418 90.953 136.273C90.1163 135.115 89.7694 134.368 89.1793 133.129L89.1779 133.127C88.5858 131.862 88.3607 131.127 87.9194 129.868C87.4717 128.599 87.2861 127.917 86.9093 126.671C86.5318 125.422 86.3181 124.758 85.9882 123.49C85.6635 122.241 85.4467 121.544 85.2178 120.223L85.061 119.332C84.9228 118.508 84.8397 117.826 84.8118 116.807L84.7986 116.322C84.7762 115.246 84.8169 114.5 85.0055 113.315V113.313H85.0059C85.2285 111.963 85.4387 111.204 85.9278 109.929L85.9281 109.928C86.4264 108.642 86.8023 107.959 87.5162 106.803L87.5166 106.802C88.237 105.643 88.7241 105.052 89.5953 104.035L89.597 104.033C90.4839 103.013 91.0198 102.507 92.0003 101.614L92.0014 101.613C92.9886 100.721 93.5595 100.277 94.6144 99.5005L94.6155 99.4998C95.68 98.7216 96.2709 98.3297 97.3931 97.6475L97.3942 97.6472C98.5229 96.9655 99.1436 96.6183 100.334 96.0306C101.521 95.4443 102.187 95.1409 103.451 94.6555L103.453 94.6548C104.553 94.2391 105.237 93.9878 106.292 93.7038L106.769 93.5794C108.101 93.2353 108.872 93.0556 110.282 92.922ZM113.852 93.617C112.497 93.4681 111.724 93.5168 110.351 93.6469C108.995 93.7754 108.266 93.945 106.949 94.2851L106.948 94.2854C105.642 94.6153 104.958 94.8645 103.711 95.336C102.472 95.8113 101.827 96.105 100.656 96.6834C99.4873 97.2605 98.8844 97.5973 97.771 98.2697L97.7714 98.27C96.6661 98.9419 96.092 99.3215 95.0457 100.086L95.046 100.087C94.0041 100.854 93.4535 101.283 92.4895 102.153C91.5194 103.037 91.0069 103.521 90.1467 104.51C89.2862 105.515 88.8267 106.075 88.1352 107.187L88.1348 107.186C87.4366 108.317 87.0844 108.959 86.6071 110.191C86.1356 111.42 85.9381 112.131 85.724 113.43L85.7244 113.43C85.5436 114.565 85.5048 115.268 85.5267 116.312L85.5395 116.783V116.785L85.5573 117.248C85.594 117.982 85.6667 118.542 85.7795 119.215L85.9345 120.094L85.9349 120.096C86.1572 121.38 86.3625 122.037 86.6928 123.307C87.0182 124.558 87.2268 125.204 87.6065 126.46C87.9393 127.561 88.1177 128.203 88.4523 129.183L88.6062 129.626V129.627C89.053 130.901 89.2649 131.594 89.8377 132.819H89.8374C90.4261 134.054 90.7493 134.748 91.5431 135.847C92.3468 136.959 92.8442 137.553 93.8771 138.424L94.0687 138.582C95.0064 139.349 95.6623 139.745 96.8229 140.279L97.0483 140.38C98.1505 140.862 98.8882 141.045 100.151 141.302L100.393 141.349C101.577 141.567 102.318 141.583 103.598 141.638H103.597C104.931 141.688 105.639 141.623 106.959 141.565C108.268 141.507 108.937 141.442 110.22 141.333L111.083 141.26C111.869 141.194 112.481 141.139 113.429 141.014C114.698 140.839 115.372 140.761 116.611 140.468C117.862 140.171 118.535 139.994 119.728 139.522L119.73 139.522C120.927 139.056 121.565 138.744 122.684 138.083L122.686 138.083C123.801 137.432 124.369 137.007 125.411 136.189C126.438 135.377 126.959 134.892 127.913 133.945L127.914 133.944C128.868 133.004 129.368 132.475 130.225 131.425L130.226 131.424C131.097 130.364 131.571 129.784 132.277 128.614L132.531 128.188C133.092 127.242 133.438 126.59 133.848 125.468C134.314 124.163 134.516 123.408 134.637 122.048C134.757 120.686 134.708 119.904 134.459 118.558C134.212 117.222 133.919 116.487 133.363 115.231L133.362 115.228C132.822 113.985 132.388 113.371 131.669 112.218L131.668 112.218C130.961 111.08 130.535 110.584 129.804 109.49C129.102 108.441 128.723 107.914 128.07 106.842L128.069 106.841C127.427 105.782 127.129 105.175 126.506 104.08L126.505 104.078C125.862 102.935 125.6 102.318 124.885 101.191C124.161 100.058 123.776 99.4053 122.888 98.3898L122.563 98.0261C121.836 97.2223 121.302 96.7075 120.336 96.0203V96.0207C119.218 95.2297 118.532 94.8594 117.254 94.3906L117.252 94.3899C115.984 93.9154 115.221 93.7676 113.852 93.617Z" fill="#36504A"/>
<path id="Vector (Stroke)_3" opacity="0.678" d="M110.145 81.9378C112.01 81.7168 113.17 81.622 114.993 81.7721L115.367 81.8052L115.369 81.8055C117.385 82.0064 118.58 82.235 120.503 82.9663L120.504 82.9666C122.413 83.6958 123.479 84.3024 125.105 85.5381H125.105C126.754 86.7782 127.564 87.6984 128.818 89.2546C130.095 90.8394 130.633 91.8967 131.576 93.5311L131.752 93.8387C132.147 94.5392 132.437 95.1199 132.713 95.6877C132.988 96.2559 133.245 96.8003 133.58 97.4478L133.729 97.7319L133.729 97.733C134.576 99.3383 134.931 100.107 135.825 101.552C136.72 102.991 137.242 103.668 138.297 105.125C138.811 105.835 139.239 106.364 139.685 106.928C140.131 107.492 140.588 108.08 141.139 108.888L141.882 109.959C142.581 110.963 143.168 111.838 143.838 113.217C144.715 115.022 145.214 116.163 145.637 118.19C146.057 120.201 146.142 121.436 145.969 123.483L145.969 123.485C145.788 125.548 145.449 126.721 144.744 128.628L144.743 128.63C144.021 130.565 143.394 131.586 142.333 133.277L142.332 133.279C141.251 134.994 140.52 135.86 139.257 137.356C137.987 138.862 137.243 139.629 135.863 140.965L135.862 140.966C134.477 142.3 133.701 143.016 132.197 144.18L132.195 144.181C130.697 145.334 129.832 145.958 128.186 146.889L128.185 146.89C126.539 147.817 125.575 148.261 123.824 148.907C122.063 149.556 121.039 149.796 119.257 150.178L119.256 150.178C117.454 150.57 116.451 150.662 114.69 150.893H114.688C112.901 151.12 111.948 151.188 110.172 151.368L110.172 151.369C108.403 151.549 107.437 151.674 105.58 151.821C103.756 151.972 102.679 152.122 100.716 152.129H100.713C98.793 152.129 97.6085 152.167 95.5931 151.821H95.5928C93.624 151.482 92.428 151.223 90.5445 150.383L90.5434 150.383C88.6825 149.55 87.6379 148.897 86.0955 147.566C84.538 146.227 83.7798 145.26 82.6534 143.593L82.4451 143.282C81.4424 141.756 81.0003 140.676 80.2718 139.001L80.2708 138.999C79.4832 137.171 79.2067 136.098 78.6329 134.333V134.333C78.0479 132.526 77.7987 131.551 77.2812 129.819L77.2805 129.816C76.7682 128.077 76.4638 127.146 75.9811 125.376V125.376C75.4991 123.635 75.1757 122.646 74.8058 120.797L74.8051 120.793C74.4482 118.965 74.2283 117.897 74.1385 115.966V115.966C74.0497 114.05 74.0641 112.926 74.3639 111C74.6626 109.081 74.9592 107.993 75.6679 106.181C76.3718 104.361 76.9186 103.383 77.9457 101.765C78.8543 100.333 79.5057 99.5131 80.4958 98.3807L80.9427 97.8738C82.2059 96.4398 82.9863 95.7273 84.3777 94.4971C85.7817 93.2483 86.5941 92.63 88.0893 91.5452C89.5841 90.4554 90.4299 89.9065 91.9999 88.9528C93.5789 87.9908 94.4523 87.5023 96.1193 86.6505L96.1214 86.6494C97.7841 85.8071 98.712 85.3614 100.488 84.6464L101.117 84.3919C102.515 83.8285 103.49 83.4663 105.152 82.999H105.153C107.034 82.4719 108.135 82.1772 110.145 81.9381L110.145 81.9378ZM115.242 83.1096C113.566 82.9494 112.526 82.9926 110.991 83.16L110.299 83.2393C108.392 83.4663 107.367 83.739 105.506 84.2604L105.507 84.2607C103.678 84.775 102.729 85.1502 100.982 85.8605L100.98 85.8612C99.2479 86.5582 98.3558 86.9865 96.7137 87.8184L96.7134 87.818C95.0764 88.6545 94.2318 89.1275 92.6811 90.0723L92.6804 90.073C91.1346 91.012 90.3204 91.5407 88.86 92.6054L88.8586 92.6061C87.3838 93.676 86.6086 94.2664 85.2469 95.4776L85.2455 95.479C83.8707 96.6947 83.1365 97.3658 81.925 98.7412L81.9236 98.7426C80.6896 100.135 80.0377 100.914 79.0521 102.467C78.0555 104.038 77.554 104.938 76.8895 106.656L76.8888 106.658C76.2141 108.384 75.9428 109.379 75.659 111.202C75.3764 113.018 75.3615 114.049 75.4475 115.905C75.5324 117.73 75.7344 118.715 76.0906 120.54H76.091C76.4489 122.329 76.7515 123.248 77.2446 125.029L77.2453 125.032C77.7235 126.785 78.0159 127.675 78.5369 129.443C79.0678 131.22 79.2996 132.138 79.8794 133.928L80.0866 134.574C80.5402 136.002 80.8127 136.944 81.4735 138.478C82.2058 140.161 82.6101 141.147 83.5433 142.566L83.7371 142.856L83.7381 142.857C84.7565 144.365 85.421 145.222 86.6878 146.344L86.9495 146.572L86.9509 146.573C88.3931 147.818 89.3289 148.403 91.0788 149.186H91.0784C92.8203 149.963 93.8961 150.199 95.815 150.529H95.8146C97.701 150.853 98.7737 150.819 100.711 150.819L101.056 150.816C102.733 150.794 103.715 150.66 105.472 150.515L105.474 150.515C107.314 150.37 108.242 150.248 110.039 150.064H110.04C111.846 149.881 112.757 149.817 114.523 149.593C116.313 149.358 117.246 149.275 118.98 148.897L118.982 148.896C120.739 148.52 121.694 148.295 123.371 147.677C125.056 147.056 125.956 146.641 127.542 145.748C129.114 144.859 129.924 144.274 131.396 143.142C132.847 142.02 133.585 141.339 134.952 140.022C136.309 138.709 137.021 137.975 138.255 136.511L138.702 135.982C139.688 134.807 140.322 134.01 141.224 132.58C142.273 130.908 142.841 129.978 143.516 128.171C144.194 126.336 144.495 125.281 144.663 123.37C144.825 121.457 144.75 120.349 144.355 118.458C143.963 116.582 143.515 115.552 142.659 113.79C141.82 112.062 141.152 111.227 140.058 109.629L140.057 109.628C139.531 108.857 139.096 108.295 138.657 107.741C138.219 107.187 137.77 106.632 137.235 105.893C136.193 104.453 135.637 103.731 134.712 102.244L134.711 102.243C133.785 100.747 133.398 99.9131 132.57 98.3445V98.3441C132.145 97.5414 131.841 96.8932 131.534 96.2597C131.226 95.6254 130.908 94.9914 130.442 94.1881L130.442 94.1871C129.478 92.5165 128.996 91.5643 127.798 90.0769C126.576 88.5607 125.843 87.7334 124.317 86.5854L124.315 86.5833C122.782 85.418 121.825 84.8737 120.037 84.191V84.1914C118.247 83.5105 117.17 83.3018 115.242 83.1096Z" fill="#36504A"/>
<path id="Vector (Stroke)_4" opacity="0.702" d="M111.002 71.2041C112.904 70.9562 114.292 70.8564 116.314 71.004L116.792 71.0424L116.793 71.0427C119.395 71.278 120.924 71.5603 123.368 72.5302H123.367C125.806 73.4911 127.149 74.2967 129.192 75.9492C130.987 77.4007 131.969 78.5235 133.221 80.1787L133.777 80.9232L133.778 80.9239C135.134 82.7646 135.774 84.0742 136.677 85.8304L137.084 86.6132V86.6139C137.665 87.7248 138.053 88.5987 138.424 89.4485C138.748 90.1916 139.057 90.9127 139.472 91.7646L139.657 92.1383V92.1386C140.688 94.1999 141.129 95.1988 142.297 97.0433C143.464 98.8883 144.172 99.7241 145.603 101.549L145.862 101.876C146.455 102.615 146.976 103.206 147.513 103.822C148.049 104.438 148.598 105.075 149.237 105.9L149.517 106.265L149.517 106.266C151.006 108.246 152.028 109.413 153.261 111.739L153.261 111.739C154.483 114.05 155.177 115.489 155.763 118.076H155.762C156.353 120.652 156.473 122.218 156.251 124.841V124.842C156.021 127.473 155.565 128.964 154.626 131.407L154.626 131.408C153.673 133.869 152.847 135.162 151.439 137.329L151.439 137.329C150.012 139.514 149.059 140.607 147.405 142.523L147.404 142.524C145.735 144.45 144.772 145.419 142.975 147.122C141.178 148.823 140.177 149.729 138.226 151.204L138.225 151.204C136.279 152.667 135.172 153.435 133.047 154.59L133.046 154.59C130.923 155.736 129.681 156.268 127.428 157.039C125.169 157.812 123.867 158.07 121.585 158.515H121.584C119.282 158.962 118.014 159.045 115.758 159.327L115.758 159.327C114.618 159.473 113.751 159.566 112.883 159.658C112.015 159.75 111.148 159.841 110.005 159.982L110.004 159.983C108.864 160.121 107.993 160.242 107.107 160.365C106.22 160.488 105.318 160.612 104.12 160.755H104.119C101.756 161.028 100.382 161.309 97.838 161.412L97.8384 161.412C95.3177 161.521 93.7913 161.64 91.1895 161.27V161.27C88.6104 160.911 87.0671 160.607 84.6587 159.554C82.2576 158.505 80.9363 157.662 78.9783 155.926C77.0138 154.183 76.0899 152.907 74.6968 150.715L74.6965 150.715C73.292 148.497 72.7708 147.053 71.8406 144.691L71.6707 144.255C70.8556 142.128 70.5573 140.774 69.908 138.603C69.2122 136.277 68.916 135.011 68.2691 132.775C67.9424 131.646 67.6808 130.795 67.4187 129.942C67.1566 129.088 66.894 128.232 66.5655 127.096L66.5651 127.095C65.9227 124.851 65.4704 123.615 64.9575 121.255L64.9571 121.254C64.4552 118.905 64.1364 117.554 63.9816 115.092C63.8276 112.635 63.827 111.21 64.196 108.753C64.5569 106.301 64.9356 104.92 65.8406 102.61C66.7477 100.294 67.4525 99.0629 68.786 96.9968L68.7867 96.996C70.1341 94.9197 71.0367 93.8695 72.6661 92.0647L72.6668 92.0643C74.3118 90.2504 75.3071 89.3584 77.1175 87.7889C78.9347 86.2135 79.9711 85.4419 81.8978 84.0553V84.0549C83.8217 82.6723 84.8928 81.9828 86.9081 80.7561C88.9314 79.5217 90.038 78.8914 92.1644 77.7808L92.1651 77.7804C94.2873 76.6792 95.4615 76.0849 97.7232 75.1187L97.7239 75.1183C99.9812 74.1571 101.249 73.6042 103.687 72.8626C106.1 72.1191 107.506 71.6895 110.084 71.3285L111.002 71.2041ZM116.729 71.768C114.191 71.5457 112.729 71.6944 110.185 72.0495C107.667 72.4021 106.307 72.8171 103.9 73.5587L103.899 73.559C101.502 74.2882 100.266 74.8269 98.009 75.7878C95.7716 76.7436 94.6157 77.3287 92.501 78.4261C90.3899 79.5288 89.2977 80.1514 87.2874 81.3779H87.287C85.5339 82.445 84.507 83.0985 83.0009 84.1626L82.323 84.6462C80.4054 86.0263 79.3884 86.7835 77.5943 88.3389C75.7935 89.9 74.8227 90.77 73.2061 92.5525L73.2065 92.5528C71.5887 94.3447 70.7149 95.3624 69.3975 97.3924C68.081 99.4323 67.4024 100.619 66.5185 102.875C65.6326 105.137 65.2688 106.465 64.9162 108.86L64.9159 108.861C64.5567 111.254 64.5565 112.625 64.7083 115.046C64.8592 117.447 65.1661 118.747 65.6689 121.1C66.1752 123.429 66.6113 124.611 67.2648 126.894L67.4987 127.693C67.7223 128.449 67.9182 129.088 68.1148 129.728C68.377 130.582 68.6399 131.438 68.9684 132.573C69.6321 134.866 69.9038 136.047 70.6059 138.395C71.3113 140.753 71.5861 142.076 72.5175 144.422L72.5179 144.424C73.4513 146.794 73.9496 148.174 75.3115 150.325L75.5636 150.719C76.7993 152.64 77.6855 153.806 79.4614 155.381C81.3623 157.066 82.6187 157.868 84.9502 158.887C87.274 159.902 88.7448 160.195 91.2909 160.549H91.2919C93.8159 160.908 95.2748 160.794 97.8071 160.684H97.8082C100.316 160.583 101.622 160.311 104.034 160.031C105.224 159.89 106.121 159.767 107.007 159.644C107.893 159.521 108.769 159.399 109.915 159.26L110.73 159.162C111.502 159.072 112.156 159.003 112.806 158.934C113.673 158.842 114.534 158.75 115.666 158.605H115.667C117.954 158.319 119.175 158.241 121.445 157.8C123.721 157.357 124.982 157.106 127.193 156.35C129.41 155.591 130.615 155.075 132.7 153.949C134.783 152.818 135.86 152.072 137.787 150.623L138.136 150.357C139.834 149.057 140.8 148.179 142.474 146.593C144.259 144.903 145.204 143.95 146.854 142.047C148.506 140.133 149.431 139.071 150.829 136.931C152.231 134.774 153.022 133.533 153.947 131.145C154.871 128.74 155.304 127.319 155.525 124.78C155.741 122.234 155.627 120.743 155.053 118.237L155.053 118.237C154.488 115.742 153.828 114.369 152.618 112.079V112.079C151.419 109.818 150.446 108.713 148.935 106.703V106.703C148.19 105.716 147.574 105 146.964 104.3C146.43 103.688 145.898 103.086 145.294 102.332L145.03 101.999C143.607 100.183 142.873 99.3155 141.681 97.4326C140.489 95.5493 140.028 94.5095 139.006 92.4643V92.4639C138.484 91.4237 138.125 90.5843 137.756 89.7393C137.388 88.8945 137.008 88.0392 136.439 86.9513V86.9517C135.28 84.7442 134.699 83.4024 133.192 81.3559V81.3555C131.664 79.2916 130.716 78.1182 128.734 76.5155C126.745 74.9063 125.466 74.1395 123.1 73.2074L123.099 73.2071C120.737 72.2695 119.281 71.9983 116.729 71.7676V71.768Z" fill="#36504A"/>
<path id="Vector (Stroke)_5" opacity="0.726" d="M109.952 59.9606C113.123 59.4479 115.04 59.198 118.314 59.4664H118.314C121.349 59.7158 123.237 60.0418 125.961 61.1036L126.519 61.3268C129.537 62.5713 131.213 63.636 133.7 65.7743L133.932 65.9748C136.287 68.0307 137.451 69.641 139.204 72.239L139.536 72.7389C141.134 75.1904 141.806 76.9612 143.025 79.526H143.025C143.694 80.9319 144.129 82.0387 144.543 83.1004C144.905 84.0285 145.25 84.918 145.725 85.9587L145.938 86.4145L145.938 86.4152C147.143 88.9636 147.649 90.1386 149.077 92.3377C150.505 94.5366 151.397 95.4828 153.242 97.6648C154.148 98.7281 154.918 99.516 155.722 100.352C156.526 101.189 157.357 102.066 158.36 103.288C160.312 105.664 161.686 107.103 163.33 109.974C164.951 112.806 165.881 114.608 166.667 117.832L166.807 118.418C167.474 121.285 167.597 123.222 167.332 126.28C167.047 129.564 166.441 131.435 165.242 134.453L165.241 134.454C164.02 137.507 162.953 139.099 161.173 141.761L161.173 141.762C159.369 144.452 158.156 145.792 156.088 148.129C154.004 150.485 152.809 151.679 150.568 153.766L150.567 153.768C148.325 155.841 147.095 156.954 144.655 158.738L144.654 158.737C142.236 160.511 140.844 161.449 138.197 162.81L138.197 162.81C135.546 164.176 133.989 164.787 131.198 165.663C128.392 166.545 126.772 166.798 123.972 167.285C121.159 167.776 119.578 167.836 116.87 168.171H116.87C114.075 168.517 112.685 168.621 109.909 169.021C107.104 169.431 105.73 169.746 102.738 170.222H102.738C99.8528 170.679 98.1256 171.135 94.9557 171.385L94.9561 171.385C91.8327 171.639 89.8883 171.879 86.6174 171.514H86.616C83.3879 171.147 81.4171 170.801 78.4008 169.507L78.4001 169.506C75.3905 168.21 73.7265 167.128 71.3207 164.916C68.9031 162.693 67.7873 161.046 66.1394 158.25V158.25C64.4637 155.427 63.8896 153.565 62.8324 150.617V150.617C61.7587 147.617 61.4561 145.857 60.6769 143.019V143.019C59.8591 140.06 59.5717 138.667 58.7713 135.877L58.7706 135.875C57.9833 133.105 57.4966 131.766 56.655 128.968C55.8391 126.255 55.2303 124.73 54.5546 121.836V121.836C53.8794 118.968 53.437 117.296 53.2068 114.246L53.1652 113.695C52.9694 111.003 52.9681 109.263 53.3792 106.406C53.8091 103.375 54.2816 101.658 55.3979 98.8049L55.3986 98.8031C56.5267 95.9457 57.4103 94.4195 59.0792 91.883L59.0799 91.8819C60.7676 89.3282 61.9009 88.0318 63.937 85.8346C65.9795 83.6226 67.2256 82.5327 69.4613 80.6331L69.8734 80.2847C71.8821 78.5952 73.1496 77.6733 75.3686 76.1049C77.7435 74.419 79.0605 73.588 81.5279 72.0769C83.6913 70.752 84.9962 69.9959 87.0277 68.9018L87.9474 68.4094C90.536 67.024 91.9567 66.2731 94.7289 65.0263C97.4778 63.79 99.0361 63.0556 102.036 62.0606C105 61.07 106.742 60.4718 109.952 59.9602V59.9606ZM118.207 60.7726C115.088 60.5168 113.292 60.7478 110.159 61.2543L110.158 61.2547C107.063 61.7478 105.411 62.3143 102.45 63.3038L102.449 63.3046C99.5217 64.2754 98.0218 64.9824 95.2664 66.2216C92.5346 67.4501 91.1447 68.1846 88.5646 69.5655L88.5635 69.5662C85.9901 70.9363 84.6617 71.6942 82.2122 73.1943C79.7582 74.6972 78.4686 75.5115 76.1262 77.1743L76.1251 77.1753C73.921 78.7332 72.685 79.6322 70.7145 81.2897L70.31 81.6317C68.09 83.5179 66.8896 84.5686 64.899 86.7245L64.8983 86.7256C62.8862 88.8969 61.8059 90.1343 60.1735 92.6044C58.5373 95.0911 57.7028 96.5356 56.6176 99.2841C55.5358 102.05 55.0911 103.668 54.6765 106.591V106.592C54.2822 109.333 54.2814 110.976 54.4728 113.605L54.5137 114.144V114.146C54.6796 116.346 54.9555 117.782 55.3694 119.579L55.8305 121.537L55.8309 121.538C56.4949 124.382 57.0658 125.784 57.9099 128.59C58.7281 131.311 59.2458 132.753 60.0309 135.515L60.3068 136.494C60.8234 138.361 61.1507 139.743 61.6656 141.662L61.9404 142.671L61.9408 142.672C62.7488 145.615 63.014 147.235 64.0664 150.175H64.066C65.0677 152.968 65.5988 154.667 66.9795 157.088L67.2675 157.583L67.2685 157.585C68.8824 160.323 69.9219 161.85 72.2077 163.951C74.5052 166.064 76.0447 167.065 78.9177 168.302C81.7692 169.526 83.5991 169.851 86.7625 170.212C89.8843 170.56 91.6973 170.335 94.8501 170.079H94.8515C97.957 169.834 99.5354 169.402 102.533 168.927L103.553 168.761C105.813 168.384 107.294 168.079 109.72 167.724H109.721C112.507 167.323 113.971 167.209 116.709 166.871L117.221 166.809C119.707 166.515 121.142 166.449 123.747 165.994H123.747C126.553 165.506 128.093 165.265 130.806 164.413C133.534 163.556 135.02 162.973 137.597 161.645H137.598C140.163 160.326 141.494 159.43 143.88 157.68L143.881 157.68C146.261 155.94 147.448 154.867 149.677 152.806C151.891 150.743 153.055 149.579 155.106 147.261C157.174 144.923 158.334 143.642 160.084 141.032C161.857 138.379 162.857 136.884 164.024 133.967C165.198 131.015 165.757 129.275 166.026 126.167L166.072 125.597C166.275 122.815 166.102 121.016 165.394 118.146L165.394 118.144C164.651 115.093 163.789 113.414 162.193 110.625C160.619 107.876 159.342 106.548 157.348 104.119C156.377 102.938 155.574 102.09 154.777 101.261C153.98 100.431 153.18 99.6139 152.244 98.5148L152.243 98.513C150.419 96.3568 149.462 95.3371 147.978 93.0516C146.493 90.7657 145.951 89.5086 144.753 86.9751V86.9748C144.141 85.6847 143.735 84.6346 143.322 83.5768C142.91 82.5198 142.49 81.4498 141.841 80.0891L141.841 80.0884C140.505 77.2763 139.888 75.5846 138.119 72.9739L138.118 72.9731C136.332 70.3258 135.227 68.8096 132.847 66.7694L132.847 66.7691C130.457 64.7144 128.899 63.7261 126.021 62.5391L125.494 62.3283C123.085 61.3883 121.39 61.0585 118.781 60.822L118.207 60.7726Z" fill="#36504A"/>
<path id="Vector (Stroke)_6" opacity="0.654" d="M109.917 48.9856C113.691 48.3068 115.962 47.9582 119.823 48.2529C123.667 48.5389 125.951 48.9527 129.506 50.4649H129.506C133.065 51.9754 135.015 53.2954 137.889 55.9341H137.888C140.78 58.5821 142.104 60.5892 144.148 63.8888C146.206 67.2106 146.907 69.4452 148.338 72.7909H148.337C149.067 74.4927 149.53 75.8249 149.976 77.1008C150.421 78.376 150.851 79.5938 151.517 81.0858H151.517C152.871 84.1077 153.457 85.4941 155.185 88.0646L155.186 88.0656C156.907 90.6428 158.04 91.7098 160.336 94.2103C161.469 95.4444 162.444 96.3548 163.456 97.314C164.468 98.2734 165.513 99.2775 166.768 100.687C169.245 103.468 170.964 105.116 173.024 108.479H173.025C175.072 111.813 176.214 113.938 177.202 117.729L177.378 118.421C178.209 121.805 178.346 124.089 178.028 127.697C177.689 131.563 176.946 133.757 175.476 137.327C173.996 140.919 172.702 142.774 170.539 145.921C168.362 149.088 166.919 150.647 164.43 153.406L164.43 153.406C161.931 156.183 160.51 157.597 157.83 160.036C155.154 162.478 153.685 163.786 150.785 165.852C147.891 167.912 146.235 168.987 143.08 170.521H143.08C139.919 172.053 138.064 172.708 134.749 173.652C131.424 174.599 129.513 174.813 126.215 175.314C124.548 175.571 123.268 175.701 122 175.816C120.733 175.931 119.484 176.03 117.868 176.226C114.817 176.602 113.191 176.753 110.309 177.23L109.716 177.331C106.45 177.891 104.772 178.364 101.266 179.076L101.265 179.076C97.8156 179.767 95.7859 180.433 91.9976 180.886L91.9972 180.886C88.2421 181.344 85.924 181.729 82.0207 181.39C78.1496 181.053 75.792 180.684 72.2263 179.171H72.2259C68.6608 177.653 66.7019 176.347 63.9044 173.675C61.099 171.002 59.8473 168.992 57.9829 165.6L57.8098 165.283C56.2865 162.461 55.6464 160.416 54.768 157.641L54.3584 156.354C53.1967 152.752 52.9223 150.665 52.0654 147.245V147.244C51.1876 143.77 50.8508 142.044 49.9276 138.78C49.1199 135.924 48.556 134.341 47.7412 131.808L47.375 130.657C46.3668 127.445 45.5955 125.675 44.7339 122.279C43.8761 118.899 43.3073 116.934 42.9766 113.362V113.362C42.6547 109.798 42.5951 107.716 43.0804 104.135C43.5651 100.558 44.1119 98.5423 45.44 95.1891C46.7629 91.8231 47.8185 90.0373 49.8149 87.0609L50.1822 86.5163C51.9854 83.8737 53.3194 82.4024 55.5978 79.9872C58.0301 77.3938 59.5143 76.1373 62.1823 73.914C64.8589 71.6761 66.3836 70.5987 69.1891 68.6385C72.0014 66.6663 73.5527 65.7079 76.4669 63.9229L77.5018 63.293C79.7969 61.9042 81.3439 61.0284 84.0105 59.5675C87.0551 57.8995 88.7081 56.9924 91.9652 55.4442L91.9659 55.4439C95.2093 53.9095 97.0241 52.9909 100.553 51.717H100.553C104.069 50.4506 106.119 49.6688 109.917 48.9856ZM119.769 48.9788C116 48.6911 113.801 49.0266 110.046 49.702C106.316 50.373 104.318 51.1344 100.8 52.4017C97.3103 53.6616 95.5285 54.5638 92.2773 56.1019C89.0403 57.6406 87.4024 58.5394 84.3604 60.206C81.321 61.8711 79.7462 62.771 76.8469 64.544L76.8466 64.5437C73.9363 66.3262 72.4006 67.2758 69.6068 69.235L69.6061 69.2354C66.8057 71.1921 65.3013 72.2551 62.6487 74.4728L62.6483 74.4732C59.9869 76.691 58.53 77.9251 56.1282 80.486L56.1275 80.4867C53.7086 83.0508 52.3846 84.519 50.4207 87.4648L50.42 87.4659C48.4416 90.4154 47.4151 92.1537 46.1172 95.4561L46.1169 95.4571C44.8093 98.7586 44.2785 100.718 43.8021 104.233C43.3264 107.743 43.3832 109.767 43.7019 113.295L43.7651 113.935C44.0964 117.045 44.6329 118.921 45.4396 122.1C46.2963 125.476 47.0393 127.157 48.0697 130.439L48.4327 131.58C49.2431 134.099 49.8179 135.717 50.6284 138.582C51.5545 141.856 51.9019 143.625 52.7714 147.067L52.7718 147.068C53.6476 150.564 53.8977 152.554 55.0513 156.131L55.4627 157.422C56.3414 160.197 56.9619 162.179 58.4511 164.938L58.6203 165.248L58.6207 165.249C60.4116 168.507 61.6026 170.426 64.1554 172.906L64.4067 173.148L64.4071 173.148C67.1429 175.761 69.0283 177.018 72.511 178.501H72.5107C75.9783 179.972 78.2516 180.331 82.0836 180.665C85.8977 180.996 88.1374 180.623 91.9101 180.163H91.9108C95.6651 179.714 97.5964 179.069 101.121 178.362L102.343 178.109C105.036 177.538 106.729 177.104 109.593 176.613L110.191 176.512C113.094 176.031 114.741 175.878 117.779 175.504H117.78C119.41 175.306 120.674 175.205 121.934 175.091C123.195 174.977 124.459 174.848 126.105 174.595L126.105 174.595C129.418 174.091 131.279 173.884 134.55 172.952C137.832 172.017 139.646 171.376 142.762 169.865C145.869 168.355 147.489 167.305 150.362 165.259C153.227 163.218 154.671 161.934 157.339 159.498L157.34 159.498C160.003 157.073 161.407 155.677 163.889 152.919L163.889 152.919C166.379 150.16 167.792 148.632 169.939 145.508C172.1 142.364 173.355 140.564 174.802 137.05C176.259 133.515 176.973 131.397 177.303 127.633C177.634 123.866 177.463 121.607 176.498 117.913V117.913C175.535 114.22 174.434 112.165 172.404 108.859H172.404C170.387 105.567 168.728 103.982 166.225 101.171C164.99 99.7851 163.963 98.7981 162.955 97.8426C161.947 96.8869 160.952 95.9588 159.799 94.7027C157.523 92.2232 156.34 91.1058 154.581 88.4698V88.4695C152.815 85.8423 152.206 84.4039 150.852 81.3833V81.383C150.172 79.8607 149.735 78.6175 149.288 77.3408C148.843 76.0648 148.387 74.7539 147.668 73.0774V73.0771C146.216 69.6807 145.548 67.5321 143.529 64.272C141.495 60.9897 140.213 59.0506 137.396 56.471L137.396 56.4706C134.576 53.8817 132.696 52.6096 129.221 51.135H129.221C125.758 49.6621 123.557 49.2607 119.77 48.9788H119.769Z" fill="#36504A"/>
<path id="Vector (Stroke)_7" opacity="0.774" d="M109.787 37.2702C114.181 36.3856 116.878 35.9206 121.414 36.2325H121.415C125.917 36.5492 128.638 37.0419 132.796 38.8789C136.687 40.5981 138.938 42.1423 141.914 44.9778L142.52 45.5622L142.52 45.563C145.828 48.8034 147.313 51.2784 149.564 55.2611C151.838 59.2849 152.553 62.0064 154.075 65.9564C154.856 67.9819 155.335 69.5624 155.801 71.0563C156.267 72.5489 156.719 73.9574 157.452 75.6769H157.452C158.942 79.1656 159.583 80.6997 161.595 83.5818L161.964 84.1015C163.78 86.6061 165.126 87.7698 167.748 90.4048C169.118 91.7821 170.305 92.7904 171.55 93.8661C172.717 94.8748 173.925 95.9355 175.346 97.3903L175.633 97.6868L175.634 97.6872C178.659 100.842 180.808 102.756 183.348 106.659C185.864 110.524 187.272 113.036 188.484 117.482C189.692 121.914 189.902 124.68 189.487 129.196C189.071 133.732 188.155 136.308 186.395 140.466L186.394 140.466C184.617 144.657 183.059 146.819 180.503 150.46L180.502 150.46C177.92 154.131 176.219 155.943 173.3 159.138L173.3 159.139C170.359 162.351 168.713 163.982 165.565 166.807L165.565 166.808C162.429 169.615 160.708 171.138 157.294 173.492L157.293 173.493C153.888 175.829 151.925 177.045 148.211 178.747L148.209 178.748C144.487 180.443 142.293 181.124 138.415 182.106L138.414 182.107C134.522 183.087 132.278 183.245 128.48 183.737L128.481 183.738C126.547 183.991 125.07 184.105 123.619 184.212C122.17 184.318 120.75 184.417 118.908 184.641L118.908 184.641C115.187 185.1 113.352 185.301 109.622 186.046L109.622 186.045C105.886 186.8 104.001 187.454 99.9093 188.464L99.9082 188.464C96.077 189.405 93.6822 190.318 89.4977 191.021L89.087 191.089C84.6846 191.792 81.9008 192.368 77.2786 192.078V192.078C72.7028 191.799 69.884 191.397 65.6767 189.618H65.6763C61.4747 187.836 59.1703 186.244 55.947 183.043C52.7002 179.818 51.2938 177.359 49.2213 173.309L49.221 173.308C47.1324 169.205 46.5461 166.495 45.3309 162.278C44.1059 158.027 43.866 155.517 42.9557 151.578L42.9554 151.577C42.0254 147.528 41.6761 145.551 40.626 141.807V141.807C39.5753 138.053 38.8535 136.259 37.6205 132.501L37.3972 131.834C36.2944 128.585 35.3838 126.54 34.3778 122.865L34.3775 122.864C33.3181 118.975 32.5956 116.686 32.1594 112.525L32.0809 111.768C31.7092 108.079 31.6549 105.681 32.1612 101.77C32.6929 97.6053 33.3412 95.237 34.8809 91.3398L34.8813 91.3391C36.4335 87.4215 37.6838 85.3397 40.0149 81.887L40.0156 81.8856C42.3681 78.4195 43.9625 76.6783 46.8052 73.7112C49.6582 70.7259 51.4017 69.2857 54.5153 66.7335L55.0859 66.2685C57.8683 64.0165 59.6309 62.8051 62.6843 60.7012L62.685 60.7008C65.9553 58.4548 67.7596 57.3621 71.1164 55.3087C74.4822 53.2498 76.3028 52.2042 79.8024 50.243L79.8027 50.2426C83.3034 48.2849 85.2022 47.2001 88.953 45.3283C92.676 43.4704 94.7694 42.3247 98.8751 40.7383C102.939 39.168 105.341 38.1639 109.787 37.2702ZM121.324 37.54C116.964 37.2403 114.403 37.6777 110.046 38.555H110.045C105.725 39.4234 103.424 40.3854 99.3476 41.9605C95.3133 43.5194 93.2854 44.6309 89.5382 46.5008C85.8189 48.3568 83.9462 49.4273 80.4427 51.3867L80.4423 51.3863C76.9526 53.342 75.1475 54.379 71.8005 56.4264C68.4445 58.4793 66.6661 59.556 63.4277 61.7801L63.4281 61.7805C60.1759 64.0214 58.4252 65.2246 55.3458 67.7475C52.2419 70.2917 50.5485 71.6911 47.752 74.6175L47.7516 74.6178C44.9298 77.5629 43.393 79.2439 41.1003 82.6219L41.0999 82.6215C38.8011 86.0265 37.605 88.0221 36.0996 91.8212C34.596 95.6269 33.9777 97.8895 33.461 101.937V101.938C32.9707 105.726 33.0204 108.021 33.3856 111.643L33.4627 112.386V112.387C33.8857 116.423 34.5753 118.604 35.6417 122.519H35.6421C36.6428 126.175 37.4958 128.044 38.6334 131.399L38.8648 132.09L38.8652 132.091C40.0783 135.789 40.8274 137.664 41.8881 141.453H41.8877C42.949 145.237 43.3135 147.28 44.2327 151.283L44.4027 152.036C45.213 155.701 45.4451 157.942 46.5902 161.915C47.8212 166.187 48.3708 168.749 50.3881 172.712C52.4367 176.715 53.768 179.032 56.8702 182.113C59.9811 185.203 62.1473 186.698 66.1872 188.411C70.2071 190.111 72.8637 190.496 77.3593 190.77H77.3604C81.8102 191.049 84.4435 190.503 88.8801 189.794L89.2847 189.728C93.1373 189.082 95.319 188.28 98.8459 187.379L99.5961 187.191C103.584 186.207 105.602 185.52 109.364 184.761L109.366 184.76C113.149 184.005 115.029 183.799 118.748 183.34H118.749C120.627 183.112 122.077 183.011 123.523 182.905C124.968 182.798 126.415 182.687 128.31 182.438L128.311 182.438C132.158 181.94 134.297 181.792 138.094 180.836C141.918 179.867 144.034 179.209 147.666 177.555C151.29 175.894 153.186 174.721 156.551 172.412C159.894 170.107 161.565 168.63 164.691 165.831C167.805 163.036 169.42 161.435 172.333 158.254C175.253 155.057 176.902 153.301 179.431 149.706C181.986 146.066 183.47 144.005 185.188 139.954C186.923 135.856 187.783 133.422 188.182 129.076C188.583 124.709 188.385 122.101 187.22 117.826C186.058 113.564 184.728 111.182 182.249 107.374C179.795 103.602 177.764 101.803 174.688 98.5945V98.5941C173.184 97.0294 171.928 95.9259 170.692 94.8577C169.456 93.7891 168.23 92.7478 166.818 91.3292C164.066 88.5627 162.615 87.3261 160.521 84.3333L160.52 84.3326C158.426 81.3322 157.742 79.6918 156.247 76.1913V76.191C155.487 74.4084 155.018 72.9479 154.55 71.4463C154.082 69.9459 153.615 68.4066 152.852 66.4278C151.288 62.3687 150.634 59.8183 148.423 55.906C146.189 51.9527 144.776 49.608 141.604 46.4997L141.017 45.9327C138.136 43.1869 136.007 41.7301 132.266 40.0774C128.284 38.3178 125.72 37.8491 121.324 37.5397V37.54Z" fill="#36504A"/>
<path id="Vector (Stroke)_8" opacity="0.654" d="M109.773 25.9512C114.791 24.8498 117.86 24.2511 123.009 24.5821C128.138 24.9118 131.22 25.4868 135.902 27.6434C140.579 29.7983 143.135 31.7349 146.773 35.5348L147.11 35.8896C150.53 39.5311 152.097 42.429 154.442 46.9707C156.876 51.683 157.541 54.8531 159.144 59.4688C159.957 61.8084 160.436 63.6265 160.912 65.343C161.358 66.9517 161.802 68.4743 162.521 70.2765L162.669 70.6405V70.6412C164.29 74.6029 164.997 76.3165 167.351 79.5341C169.706 82.7525 171.343 83.9656 174.666 87.0547C176.306 88.5792 177.739 89.6892 179.231 90.8711C180.723 92.0529 182.267 93.3015 184.108 95.0907L184.779 95.7374C188.077 98.8982 190.491 101.025 193.314 105.143C196.311 109.514 197.958 112.354 199.378 117.387H199.378C200.804 122.407 201.018 125.547 200.534 130.655C200.048 135.785 198.96 138.694 196.908 143.405L196.908 143.406C194.852 148.149 193.047 150.573 190.092 154.707C187.121 158.863 185.184 160.903 181.828 164.528C178.465 168.162 176.592 170.027 172.992 173.204C169.392 176.381 167.433 178.091 163.509 180.697H163.509C159.601 183.29 157.346 184.62 153.089 186.43L153.089 186.43C148.824 188.233 146.304 188.908 141.885 189.88C137.455 190.854 134.907 190.915 130.597 191.379C128.42 191.613 126.762 191.699 125.134 191.792C123.507 191.884 121.908 191.984 119.835 192.244L119.834 192.245C115.66 192.761 113.614 193.036 109.409 194.014L109.409 194.014C105.196 195.002 103.057 195.899 98.42 197.256L98.4196 197.257C93.874 198.582 91.1394 199.83 86.0406 200.846C80.9668 201.864 77.771 202.639 72.478 202.433C67.211 202.228 63.9813 201.801 59.2084 199.776C54.434 197.76 51.8457 195.896 48.2472 192.172L48.2464 192.172C44.645 188.431 43.1323 185.556 40.9058 180.825C38.6663 176.068 38.118 172.929 36.8703 168.026C36.2406 165.551 35.8894 163.623 35.5755 161.741C35.2615 159.858 34.9865 158.03 34.5079 155.735L34.1716 154.108C33.4385 150.531 33.0217 148.347 31.987 144.633V144.632C30.8114 140.387 29.9532 138.365 28.4986 134.147C27.7768 132.054 27.1363 130.46 26.5099 128.824C25.8836 127.188 25.2753 125.519 24.6271 123.297V123.296C23.3331 118.891 22.4715 116.32 21.9067 111.625C21.3437 106.946 21.2031 104.185 21.783 99.4725C22.3549 94.7647 23.0771 92.0987 24.8276 87.6821C26.5737 83.2655 27.9945 80.9183 30.6612 77.0241C33.336 73.1109 35.1585 71.1641 38.4036 67.8241C41.6598 64.4728 43.6547 62.8594 47.2105 60.0031C50.7761 57.1389 52.8182 55.7702 56.525 53.2651C60.2395 50.7474 62.2861 49.5343 66.0926 47.2199C68.9516 45.4761 70.815 44.3795 73.2363 42.9878L75.9013 41.4627C79.8506 39.2007 81.9631 37.9291 86.1938 35.719C90.4066 33.5181 92.7495 32.1381 97.3922 30.2152C102.01 28.3026 104.726 27.0663 109.772 25.9515L109.773 25.9512ZM122.962 25.3088C117.918 24.9845 114.929 25.5651 109.929 26.6626L109.928 26.6622C104.956 27.7608 102.299 28.9709 97.6709 30.8879C93.0668 32.7947 90.7642 34.1528 86.5312 36.3642C82.3163 38.5661 80.2202 39.8282 76.2628 42.0948L76.2621 42.0951C72.3098 44.3515 70.2747 45.5218 66.4712 47.8417L66.4709 47.842C62.6616 50.1582 60.6304 51.362 56.9331 53.868L56.9328 53.8684C53.2276 56.3724 51.2071 57.7269 47.6666 60.5709C44.1162 63.4229 42.1498 65.0134 38.9259 68.3314C35.8934 71.4526 34.1315 73.3281 31.7477 76.733L31.2621 77.4355C28.6138 81.3027 27.224 83.6008 25.5045 87.9502V87.9506C23.7748 92.3146 23.0695 94.92 22.5057 99.5606V99.5613C21.9352 104.198 22.0715 106.897 22.6298 111.538C23.1861 116.162 24.0281 118.673 25.326 123.092L25.3264 123.093C25.9669 125.289 26.5672 126.937 27.1896 128.563C27.8118 130.189 28.4599 131.802 29.1869 133.91C30.6301 138.094 31.5049 140.164 32.6884 144.437L32.9028 145.216C33.7927 148.5 34.2054 150.647 34.8851 153.963L35.2207 155.586L35.3924 156.433C35.7732 158.362 36.0205 159.983 36.2937 161.621C36.6059 163.493 36.9534 165.399 37.576 167.846C38.833 172.787 39.3626 175.837 41.5645 180.515C43.7794 185.221 45.2519 188.011 48.7712 191.667H48.7708C52.1968 195.212 54.6578 197.017 59.0594 198.921L59.4918 199.105L59.4925 199.106C64.1553 201.084 67.2892 201.503 72.5065 201.706C77.6979 201.907 80.8075 201.153 85.8977 200.132L85.898 200.132C90.6465 199.186 93.2372 198.062 97.368 196.81L98.2159 196.557C102.782 195.221 105.012 194.297 109.244 193.305H109.244C113.485 192.318 115.56 192.039 119.744 191.522C121.842 191.258 123.462 191.158 125.093 191.065C126.723 190.972 128.364 190.887 130.519 190.655C134.873 190.186 137.35 190.131 141.729 189.169C146.12 188.203 148.595 187.539 152.805 185.759C157.008 183.972 159.224 182.667 163.106 180.091C166.987 177.513 168.916 175.83 172.51 172.658L173.162 172.08C176.327 169.262 178.154 167.426 181.294 164.034C184.651 160.408 186.558 158.398 189.499 154.284C192.456 150.147 194.219 147.78 196.24 143.116V143.116C198.28 138.434 199.333 135.606 199.809 130.587C200.285 125.56 200.077 122.511 198.678 117.586L198.677 117.585C197.287 112.658 195.687 109.892 192.714 105.555C189.754 101.239 187.277 99.1725 183.601 95.6137L183.601 95.6133C181.787 93.8497 180.265 92.6188 178.779 91.4417C177.293 90.2647 175.836 89.1359 174.17 87.5879C170.883 84.5319 169.171 83.2546 166.764 79.9639C164.356 76.6723 163.621 74.8912 161.995 70.9167V70.9164C161.171 68.9124 160.688 67.2615 160.21 65.5374C159.732 63.8137 159.26 62.0206 158.457 59.7077C156.828 55.0183 156.197 51.9558 153.795 47.3048C151.382 42.6298 149.829 39.7706 146.248 36.0386H146.247C142.663 32.2955 140.181 30.4167 135.597 28.305C131.017 26.1951 128.027 25.6343 122.962 25.3088Z" fill="#36504A"/>
<path id="Vector (Stroke)_9" opacity="0.822" d="M109.624 13.8252C115.291 12.4742 118.813 11.7177 124.675 12.0739C130.501 12.4275 134.051 13.0981 139.342 15.6468H139.341C144.466 18.1121 147.333 20.3731 151.163 24.577L151.537 24.9901L151.537 24.9905C155.328 29.2122 157.069 32.5492 159.388 37.4399L159.86 38.4396L159.86 38.4404C162.444 43.9386 163.068 47.6678 164.702 52.9056L164.854 53.4019C165.599 55.8499 166.042 57.795 166.487 59.6092C166.962 61.5436 167.443 63.341 168.302 65.5086L168.303 65.51C169.987 69.7836 170.756 71.6171 173.229 74.8782L173.474 75.1985L173.474 75.1992C176.137 78.6668 178.021 79.8849 181.948 83.252C183.861 84.8927 185.539 86.0808 187.304 87.366C189.068 88.6508 190.904 90.0212 193.088 92.0023C197.373 95.8891 200.401 98.2862 203.951 103.235L204.595 104.139C207.617 108.42 209.392 111.544 210.92 116.586L211.078 117.114V117.115C212.738 122.813 212.961 126.41 212.378 132.209C211.798 138.037 210.502 141.345 208.139 146.65L208.139 146.651C205.76 152.008 203.677 154.745 200.316 159.379C196.93 164.065 194.724 166.359 190.933 170.428L190.932 170.428C187.364 174.249 185.288 176.341 181.676 179.514L180.932 180.164C176.856 183.707 174.617 185.637 170.136 188.499L170.136 188.499C165.68 191.35 163.074 192.787 158.207 194.694L158.206 194.695C153.638 196.478 150.794 197.155 146.335 197.998L145.42 198.169C140.4 199.102 137.496 199.043 132.716 199.445C130.275 199.651 128.422 199.702 126.625 199.777C124.829 199.851 123.074 199.948 120.793 200.243C116.19 200.837 113.99 201.189 109.343 202.451L109.342 202.452C104.682 203.713 102.372 204.87 97.1259 206.661C92.0617 208.39 88.9066 210.013 83.0948 211.398C77.3362 212.771 73.6202 213.801 67.5495 213.69C61.5317 213.579 57.7756 213.12 52.3306 210.807L52.3295 210.806C46.8951 208.49 43.9508 206.277 39.9501 201.929C35.9191 197.564 34.2927 194.152 31.9318 188.685L31.7128 188.172C29.5062 182.927 29.0083 179.322 27.8047 173.92V173.92C27.1685 171.085 26.836 168.88 26.5408 166.742C26.2456 164.605 25.9899 162.552 25.5063 159.982C24.5209 154.778 24.1411 152.309 22.8335 147.599L22.5917 146.745C21.3994 142.608 20.4336 140.393 18.8457 135.987V135.986C18.0073 133.67 17.2615 131.909 16.5231 130.087C15.7849 128.266 15.0612 126.402 14.2848 123.914V123.914C12.7538 119.001 11.7052 116.098 11.0037 110.804L10.8779 109.842C10.2784 105.145 10.1434 102.083 10.7182 97.089C11.3306 91.7699 12.1485 88.7445 14.1134 83.7771C16.0846 78.7864 17.704 76.137 20.7146 71.7639L20.7153 71.7628C23.7504 67.3723 25.8305 65.175 29.504 61.4504C33.1994 57.7036 35.464 55.9113 39.4805 52.7477C43.5188 49.5596 45.8357 48.0593 50.0066 45.2933C54.1872 42.5086 56.491 41.1805 60.7425 38.6078C65.0078 36.0194 67.2861 34.7121 71.6806 32.1438C76.0637 29.5822 78.4141 28.1066 83.1293 25.5227C87.5138 23.1201 90.0926 21.5138 94.7006 19.4249L95.6505 19.0004C100.812 16.7208 103.904 15.198 109.623 13.8255L109.624 13.8252ZM124.587 13.5276C118.946 13.1849 115.594 13.899 109.961 15.2419L109.961 15.2416C104.395 16.5775 101.429 18.04 96.2382 20.3325L96.2378 20.3329C91.0917 22.6024 88.5591 24.2076 83.8289 26.7997C79.1371 29.3708 76.8277 30.8223 72.4154 33.4009C68.0149 35.9728 65.75 37.2724 61.4972 39.8532L61.4961 39.8535C57.2294 42.4355 54.9606 43.743 50.8126 46.5059L50.8115 46.5066C46.6384 49.2741 44.3681 50.7444 40.3828 53.8907L40.3824 53.8911C36.3758 57.0469 34.1697 58.7933 30.5407 62.4728C26.8897 66.1747 24.8778 68.3025 21.9134 72.5908C18.9397 76.9104 17.3846 79.4598 15.4679 84.3125L15.4676 84.3129C13.5445 89.1745 12.7611 92.0759 12.1648 97.2557C11.6066 102.105 11.7334 105.047 12.323 109.664L12.4471 110.611V110.612C13.129 115.759 14.1338 118.535 15.6752 123.48C16.435 125.914 17.142 127.738 17.8726 129.54C18.6031 131.343 19.3645 133.141 20.2151 135.492L20.2155 135.493C21.781 139.837 22.7786 142.136 23.9911 146.341L24.2367 147.209L24.4749 148.081C25.3115 151.19 25.7511 153.383 26.2884 156.246L26.9372 159.712V159.712C27.4292 162.326 27.6904 164.424 27.9831 166.543C28.2759 168.663 28.6023 170.823 29.2257 173.601L29.226 173.602C30.4487 179.09 30.915 182.522 33.0556 187.609L33.2679 188.106L33.2682 188.107C35.5374 193.362 37.0613 196.556 40.6647 200.552L41.0202 200.942L41.021 200.943C44.8979 205.157 47.6765 207.24 52.9009 209.467H52.9005C58.1143 211.682 61.6682 212.125 67.5762 212.233C73.4317 212.341 76.968 211.361 82.757 209.981C88.4927 208.614 91.3954 207.078 96.6555 205.283C101.575 203.603 104.098 202.396 108.527 201.165L108.962 201.046C113.692 199.761 115.962 199.398 120.606 198.799C122.948 198.496 124.75 198.397 126.565 198.322C128.379 198.247 130.192 198.196 132.594 197.994C137.496 197.581 140.229 197.653 145.154 196.737L146.06 196.568C150.471 195.734 153.221 195.077 157.677 193.338C162.434 191.474 164.955 190.086 169.352 187.273L169.352 187.272C173.739 184.47 175.912 182.599 179.977 179.065L180.712 178.423C184.281 175.288 186.323 173.231 189.868 169.434C193.662 165.363 195.81 163.129 199.137 158.525L199.137 158.524C202.504 153.882 204.499 151.259 206.808 146.06L206.809 146.059C209.148 140.808 210.372 137.665 210.928 132.064V132.063C211.495 126.43 211.282 123.023 209.68 117.523C208.073 112.024 206.243 108.924 202.769 104.084L202.768 104.084C199.33 99.2913 196.445 97.0138 192.11 93.0809C189.983 91.1522 188.197 89.8179 186.447 88.5435C184.697 87.2695 182.967 86.0439 180.999 84.3573C177.165 81.0698 175.102 79.7103 172.32 76.0866C169.527 72.4605 168.704 70.5006 166.948 66.044V66.0436C166.053 63.7851 165.554 61.9133 165.073 59.9565C164.593 57.9999 164.133 55.9702 163.311 53.3396V53.3393C161.625 47.9325 161.07 44.439 158.542 39.0597V39.0593C155.985 33.6315 154.347 30.2991 150.454 25.9635C146.539 21.6104 143.802 19.4089 138.71 16.9591L138.709 16.9587C133.791 14.5892 130.49 13.9146 125.114 13.5607L124.587 13.5276Z" fill="#36504A"/>
<path id="Vector (Stroke)_10" opacity="0.846" d="M110.806 1.94419C116.457 0.506859 120.273 -0.262735 126.341 0.0816447H126.341C132.799 0.455063 136.717 1.22799 142.517 4.14625C148.312 7.06256 151.452 9.7467 155.78 14.8885C159.856 19.7218 161.662 23.5498 164.075 29.1479L164.567 30.2919L164.567 30.2923C167.244 36.5604 167.764 40.7607 169.425 46.7121V46.7125C170.266 49.7288 170.716 52.0532 171.187 54.2156C171.628 56.2429 172.089 58.1353 172.908 60.3561L173.076 60.8051L173.077 60.8054C174.934 65.6733 175.798 67.6357 178.858 71.4083C181.926 75.1827 184.181 76.4472 188.704 80.0317L189.119 80.357C191.179 81.9572 193.027 83.1611 194.948 84.4525C196.996 85.8297 199.117 87.3005 201.63 89.4397H201.631C206.613 93.6889 210.08 96.2955 214.144 101.738V101.738C218.185 107.154 220.359 110.746 222.224 117.048L222.395 117.631C224.109 123.589 224.289 127.499 223.636 133.703C223.002 139.723 221.666 143.285 219.301 148.552L218.814 149.629C216.139 155.529 213.816 158.529 210.047 163.673C206.268 168.84 203.844 171.374 199.614 175.888L199.613 175.889C195.371 180.401 193.046 182.749 188.481 186.655C184.07 190.432 181.585 192.532 176.884 195.454L176.422 195.739C171.417 198.808 168.482 200.312 163.037 202.252C157.587 204.193 154.327 204.75 148.756 205.589L148.757 205.589C143.182 206.437 139.988 206.214 134.694 206.539C132.013 206.703 129.99 206.713 128.022 206.766C126.054 206.82 124.127 206.917 121.615 207.257C116.579 207.939 114.196 208.415 109.085 210.003L109.085 210.003C103.955 211.602 101.368 213.106 95.5888 215.368C90.0796 217.522 86.6553 219.485 80.5363 221.24L79.9355 221.409C73.4543 223.198 69.2871 224.48 62.5248 224.487C55.9918 224.494 51.8634 224.026 46.1491 221.65L45.5909 221.414C39.5931 218.834 36.3757 216.302 32.0423 211.367V211.367C27.7039 206.418 26.0179 202.54 23.5604 196.32V196.32C21.2382 190.459 20.7535 186.472 19.6924 180.793L19.4716 179.633C18.8572 176.451 18.5628 173.986 18.2995 171.599C18.0361 169.213 17.8043 166.911 17.315 164.036C16.3314 158.259 15.941 155.533 14.4979 150.326C13.0549 145.127 11.9085 142.708 9.96511 137.565L9.96475 137.564C9.00371 135.011 8.13795 133.068 7.28239 131.072C6.42685 129.077 5.58527 127.036 4.68144 124.307C2.88586 118.883 1.67244 115.706 0.822321 109.887L0.669449 108.827C-0.0594074 103.652 -0.236488 100.28 0.354463 94.7892V94.7884C0.991741 88.9285 1.8744 85.5987 4.03298 80.1181C6.19472 74.6295 7.98023 71.7206 11.3317 66.9015C14.6845 62.0626 16.9886 59.6639 21.086 55.5666C25.1877 51.4648 27.7076 49.5092 32.188 46.0487C36.6793 42.5726 39.2622 40.9625 43.8973 37.9355H43.8976C48.5425 34.9094 51.0956 33.4897 55.7981 30.6478H55.7985C60.508 27.809 63.0075 26.3762 67.8423 23.4898C72.6721 20.6065 75.2289 18.9369 80.4147 15.9579C85.5749 12.9968 88.4324 11.0672 94.1878 8.3648C99.9163 5.67499 103.32 3.8742 109.651 2.24033L110.806 1.94419ZM126.299 0.807963C119.943 0.44726 116.121 1.32405 109.833 2.94532C103.581 4.55875 100.243 6.32585 94.4971 9.02392C88.7777 11.7094 85.9703 13.6095 80.777 16.5896C75.595 19.5664 73.0694 21.2172 68.2156 24.1148C63.3668 27.0095 60.8863 28.431 56.1743 31.2714L56.1739 31.271C51.4552 34.1226 48.9261 35.5285 44.2951 38.5456L44.2947 38.5452C39.6544 41.5756 37.0973 43.1697 32.6335 46.6246L32.6331 46.625C28.1579 50.0815 25.6683 52.0139 21.6008 56.0814C17.5146 60.1675 15.2463 62.5306 11.93 67.3167L11.9297 67.3171C8.59729 72.1088 6.84423 74.9666 4.71024 80.3847C2.57315 85.8108 1.70789 89.0776 1.07829 94.8667C0.456336 100.645 0.693792 104.028 1.54259 109.781V109.781C2.38166 115.524 3.57141 118.638 5.37256 124.078C6.26712 126.779 7.09999 128.798 7.95183 130.785C8.80357 132.772 9.67797 134.735 10.6463 137.307L10.9993 138.236C12.7234 142.736 13.8359 145.218 15.1997 150.132L15.4603 151.088C16.7061 155.738 17.112 158.505 18.0328 163.914C18.5264 166.814 18.7606 169.139 19.0233 171.519C19.2859 173.899 19.5778 176.342 20.1865 179.494L20.4087 180.662C21.4409 186.183 21.9138 190.006 24.0144 195.48L24.2376 196.052V196.052C26.6875 202.253 28.3366 206.035 32.5897 210.887H32.5894C36.862 215.752 39.9939 218.214 45.8786 220.745C51.767 223.275 55.8421 223.766 62.5241 223.759C69.1733 223.752 73.2484 222.5 79.7417 220.707L80.3383 220.539C86.4117 218.798 89.7167 216.882 95.3236 214.69C101.004 212.467 103.718 210.914 108.869 209.308L108.869 209.308C114.024 207.707 116.446 207.223 121.517 206.536C124.064 206.191 126.019 206.092 128.002 206.038C129.986 205.984 131.985 205.976 134.649 205.812C140.029 205.482 143.112 205.711 148.647 204.869H148.648C154.202 204.033 157.408 203.484 162.792 201.566C168.181 199.647 171.07 198.166 176.041 195.118C180.996 192.076 183.461 189.995 188.008 186.102C192.545 182.218 194.851 179.891 199.083 175.39C203.313 170.876 205.709 168.371 209.459 163.243V163.243C213.233 158.092 215.511 155.15 218.151 149.328L218.636 148.256C220.987 143.019 222.289 139.538 222.911 133.626C223.577 127.304 223.368 123.443 221.527 117.255V117.255C219.808 111.45 217.835 107.998 214.29 103.161L213.56 102.174C209.557 96.8116 206.165 94.263 201.158 89.9936C198.676 87.8809 196.582 86.4283 194.542 85.0569C192.503 83.6859 190.508 82.3898 188.252 80.6023C183.79 77.0661 181.428 75.7237 178.293 71.8677V71.8673C175.164 68.0099 174.267 65.9678 172.396 61.065V61.0646C171.451 58.5972 170.95 56.5474 170.476 54.3706C170.002 52.1936 169.557 49.8983 168.723 46.908C167.035 40.8606 166.55 36.7897 163.898 30.5785C161.227 24.3497 159.497 20.425 155.224 15.3581L155.224 15.3578C150.947 10.2775 147.883 7.66114 142.189 4.79649C136.5 1.93368 132.685 1.17756 126.299 0.808318V0.807963Z" fill="#36504A"/>
</g>
<path id="Vector" d="M110.946 56.1668C113.258 56.1668 115.133 54.2924 115.133 51.9801C115.133 49.6679 113.258 47.7935 110.946 47.7935C108.634 47.7935 106.759 49.6679 106.759 51.9801C106.759 54.2924 108.634 56.1668 110.946 56.1668Z" fill="#FC7753"/>
<path id="Vector_2" d="M198.866 123.167C201.178 123.167 203.052 121.292 203.052 118.98C203.052 116.668 201.178 114.794 198.866 114.794C196.553 114.794 194.679 116.668 194.679 118.98C194.679 121.292 196.553 123.167 198.866 123.167Z" fill="#66D7D1"/>
<path id="Vector_3" d="M94.1995 163.167C96.5117 163.167 98.3861 161.292 98.3861 158.98C98.3861 156.668 96.5117 154.794 94.1995 154.794C91.8873 154.794 90.0128 156.668 90.0128 158.98C90.0128 161.292 91.8873 163.167 94.1995 163.167Z" fill="#DBD56E"/>
</g>
</svg>
